<svg width="63" height="61" viewBox="0 0 63 61" fill="none" xmlns="http://www.w3.org/2000/svg">
<rect width="63" height="61" fill="#0B0B0D"/>
<path d="M57.5855 47.6308H61.8104L56.7248 60.5084H52.5781L57.5855 47.6308Z" fill="#D2CFC6"/>
<path d="M39.5938 31.9263H46.1659V47.6308L40.9238 60.8225H39.5938V31.9263Z" fill="#D2CFC6"/>
<path d="M56.5006 31.9263L52.4321 31.9263L57.596 47.3167L61.195 47.3167L61.8209 47.3167L56.5006 31.9263Z" fill="#D2CFC6"/>
<path d="M39.5938 31.9263H56.4936L56.598 32.2404H39.5938V31.9263Z" fill="#D2CFC6"/>
<rect x="39.5938" y="47.3167" width="22.2201" height="0.314089" fill="#D2CFC6"/>
<path d="M39.5938 60.5084H56.7283L56.6095 60.8225H39.5938V60.5084Z" fill="#D2CFC6"/>
<path d="M25.9688 31.8738H32.3844V48.0694L27.3771 60.9008H25.9688V31.8738Z" fill="#D92008"/>
<path d="M38.6472 31.8738L38.9316 31.8738L32.3875 48.0692L32.3875 47.3653L38.6472 31.8738Z" fill="#D92008"/>
<path d="M12.3594 31.952H19.0098L25.3472 47.8346V60.8225H23.8606L12.3594 31.952Z" fill="#D2CFC6"/>
<path d="M0 31.973H6.41567V48.1686L1.40832 61H0V31.973Z" fill="#D2CFC6"/>
<path d="M12.6784 31.973L12.9628 31.973L6.41873 48.1684L6.41873 47.4645L12.6784 31.973Z" fill="#D2CFC6"/>
<path d="M12.3594 29.048H19.0098L25.3472 13.1654V0.177535H23.8606L12.3594 29.048Z" fill="#D2CFC6"/>
<path d="M0 29.027H6.41567V12.8314L1.40832 3.87058e-05H0V29.027Z" fill="#D2CFC6"/>
<path d="M12.6784 29.027L12.9628 29.027L6.41873 12.8316L6.41873 13.5355L12.6784 29.027Z" fill="#D2CFC6"/>
<path d="M38.2266 29.048H44.877L51.2144 13.1653V0.177512H49.7278L38.2266 29.048Z" fill="#D92008"/>
<path d="M25.8594 29.027H32.275V12.8313L27.2677 8.18819e-06H25.8594V29.027Z" fill="#D92008"/>
<path d="M38.5378 29.027L38.8222 29.027L32.2781 12.8316L32.2781 13.5355L38.5378 29.027Z" fill="#D92008"/>
</svg>
