<svg width="183" height="180" viewBox="0 0 183 180" fill="none" xmlns="http://www.w3.org/2000/svg">
<path d="M169.248 139.99H181.666L166.719 177.838H154.531L169.248 139.99Z" fill="#D2CFC6"/>
<path d="M116.359 93.8338H135.675V139.99L120.269 178.762H116.359V93.8338Z" fill="#D2CFC6"/>
<path d="M166.028 93.8338L154.07 93.8338L169.247 139.067L179.825 139.067L181.665 139.067L166.028 93.8338Z" fill="#D2CFC6"/>
<path d="M116.359 93.8338H166.029L166.336 94.7569H116.359V93.8338Z" fill="#D2CFC6"/>
<rect x="116.359" y="139.067" width="65.3065" height="0.923128" fill="#D2CFC6"/>
<path d="M116.359 177.838H166.719L166.37 178.762H116.359V177.838Z" fill="#D2CFC6"/>
<path d="M76.3438 93.6793H95.1998V141.279L80.4829 178.992H76.3438V93.6793Z" fill="#D92008"/>
<path d="M113.6 93.6792L114.436 93.6793L95.2026 141.279L95.2026 139.21L113.6 93.6792Z" fill="#D92008"/>
<path d="M36.3359 93.9092H55.8819L74.508 140.59V178.762H70.1389L36.3359 93.9092Z" fill="#D2CFC6"/>
<path d="M0 93.9709H18.8561V141.571L4.13914 179.283H0V93.9709Z" fill="#D2CFC6"/>
<path d="M37.2564 93.9709L38.0923 93.9709L18.8588 141.57L18.8588 139.502L37.2564 93.9709Z" fill="#D2CFC6"/>
<path d="M36.3359 85.374H55.8819L74.508 38.6937V0.521608H70.1389L36.3359 85.374Z" fill="#D2CFC6"/>
<path d="M0 85.3123H18.8561V37.7122L4.13914 2.5779e-06H0V85.3123Z" fill="#D2CFC6"/>
<path d="M37.2564 85.3123L38.0923 85.3123L18.8588 37.7128L18.8588 39.7816L37.2564 85.3123Z" fill="#D2CFC6"/>
<path d="M112.336 85.374H131.882L150.508 38.6937V0.521608H146.139L112.336 85.374Z" fill="#D92008"/>
<path d="M76 85.3123H94.8561V37.7122L80.1391 2.5779e-06H76V85.3123Z" fill="#D92008"/>
<path d="M113.256 85.3123L114.092 85.3123L94.8588 37.7128L94.8588 39.7816L113.256 85.3123Z" fill="#D92008"/>
</svg>
