<svg width="39" height="36" viewBox="0 0 39 36" fill="none" xmlns="http://www.w3.org/2000/svg">
<path d="M1.85156 1.84961H6.66838L11.4852 19.2704M11.4852 19.2704L9.87959 25.6053H33.9637M11.4852 19.2704H30.7525L35.5693 5.01703H7.54344L11.4852 19.2704ZM11.4852 31.9401C11.4852 32.3602 11.316 32.763 11.0149 33.06C10.7138 33.357 10.3054 33.5238 9.87959 33.5238C9.45376 33.5238 9.04537 33.357 8.74426 33.06C8.44315 32.763 8.27399 32.3602 8.27399 31.9401C8.27399 31.5201 8.44315 31.1173 8.74426 30.8203C9.04537 30.5233 9.45376 30.3564 9.87959 30.3564C10.3054 30.3564 10.7138 30.5233 11.0149 30.8203C11.316 31.1173 11.4852 31.5201 11.4852 31.9401ZM33.9637 31.9401C33.9637 32.3602 33.7945 32.763 33.4934 33.06C33.1923 33.357 32.7839 33.5238 32.3581 33.5238C31.9322 33.5238 31.5239 33.357 31.2227 33.06C30.9216 32.763 30.7525 32.3602 30.7525 31.9401C30.7525 31.5201 30.9216 31.1173 31.2227 30.8203C31.5239 30.5233 31.9322 30.3564 32.3581 30.3564C32.7839 30.3564 33.1923 30.5233 33.4934 30.8203C33.7945 31.1173 33.9637 31.5201 33.9637 31.9401Z" stroke="#D92008" stroke-width="3.69873" stroke-linecap="square"/>
</svg>
