<svg width="38" height="30" viewBox="0 0 38 30" fill="none" xmlns="http://www.w3.org/2000/svg">
<path d="M1.898 11.2401H0C0 11.7369 0.199967 12.2134 0.555911 12.5647C0.911854 12.9161 1.39462 13.1134 1.898 13.1134V11.2401ZM1.898 18.7335V16.8601C1.39462 16.8601 0.911854 17.0575 0.555911 17.4088C0.199967 17.7601 0 18.2366 0 18.7335H1.898ZM36.062 11.2401V13.1134C36.5653 13.1134 37.0481 12.9161 37.404 12.5647C37.76 12.2134 37.96 11.7369 37.96 11.2401H36.062ZM36.062 18.7335H37.96C37.96 18.2366 37.76 17.7601 37.404 17.4088C37.0481 17.0575 36.5653 16.8601 36.062 16.8601V18.7335ZM5.69399 3.7467H15.184V0H5.69399V3.7467ZM15.184 3.7467H32.266V0H15.184V3.7467ZM32.266 26.2269H15.184V29.9736H32.266V26.2269ZM15.184 26.2269H5.69399V29.9736H15.184V26.2269ZM13.286 1.87335V28.1002H17.082V1.87335H13.286ZM3.23988 13.6623C3.5957 14.0136 3.79559 14.49 3.79559 14.9868C3.79559 15.4835 3.5957 15.9599 3.23988 16.3112L5.92365 18.9602C6.99111 17.9062 7.59077 16.477 7.59077 14.9868C7.59077 13.4966 6.99111 12.0673 5.92365 11.0134L3.23988 13.6623ZM34.7201 16.3112C34.3642 15.9599 34.1644 15.4835 34.1644 14.9868C34.1644 14.49 34.3642 14.0136 34.7201 13.6623L32.0363 11.0134C30.9688 12.0673 30.3692 13.4966 30.3692 14.9868C30.3692 16.477 30.9688 17.9062 32.0363 18.9602L34.7201 16.3112ZM1.898 13.1134C2.38578 13.1134 2.86977 13.2952 3.23988 13.6623L5.92365 11.0134C4.85607 9.95938 3.40801 9.36706 1.898 9.36674V13.1134ZM3.796 11.2401V5.62004H0V11.2401H3.796ZM3.796 24.3535V18.7335H0V24.3535H3.796ZM3.23988 16.3112C2.88402 16.6626 2.40134 16.86 1.898 16.8601V20.6068C3.35186 20.6068 4.81332 20.0579 5.92365 18.9602L3.23988 16.3112ZM34.7201 13.6623C35.0759 13.311 35.5586 13.1135 36.062 13.1134V9.36674C34.6081 9.36674 33.1466 9.91563 32.0363 11.0134L34.7201 13.6623ZM34.164 5.62004V11.2401H37.96V5.62004H34.164ZM34.164 18.7335V24.3535H37.96V18.7335H34.164ZM36.062 16.8601C35.5586 16.86 35.0759 16.6626 34.7201 16.3112L32.0363 18.9602C33.1039 20.0142 34.5519 20.6065 36.062 20.6068V16.8601ZM5.69399 26.2269C5.19061 26.2269 4.70785 26.0295 4.35191 25.6782C3.99596 25.3269 3.796 24.8504 3.796 24.3535H0C0 25.8441 0.599901 27.2735 1.66773 28.3275C2.73556 29.3815 4.18385 29.9736 5.69399 29.9736V26.2269ZM32.266 29.9736C33.7761 29.9736 35.2244 29.3815 36.2922 28.3275C37.3601 27.2735 37.96 25.8441 37.96 24.3535H34.164C34.164 24.8504 33.964 25.3269 33.608 25.6782C33.2521 26.0295 32.7693 26.2269 32.266 26.2269V29.9736ZM32.266 3.7467C32.7693 3.7467 33.2521 3.94407 33.608 4.29539C33.964 4.64671 34.164 5.1232 34.164 5.62004H37.96C37.96 4.12952 37.3601 2.70004 36.2922 1.64607C35.2244 0.59211 33.7761 0 32.266 0V3.7467ZM5.69399 0C4.18385 0 2.73556 0.59211 1.66773 1.64607C0.599901 2.70004 0 4.12952 0 5.62004H3.796C3.796 5.1232 3.99596 4.64671 4.35191 4.29539C4.70785 3.94407 5.19061 3.7467 5.69399 3.7467V0Z" fill="#D92008"/>
</svg>
